<svg xmlns="http://www.w3.org/2000/svg" viewBox="142 80 740 740" width="1024" height="1024">

<g>


<!-- head -->
<circle cx="512" cy="540" r="280" fill="#f97316"/>
<!-- ears -->
<path d="M 260 280 L 280 120 L 420 260 Z" fill="#f97316"/><path d="M 764 280 L 744 120 L 604 260 Z" fill="#f97316"/><path d="M 300 240 L 320 180 L 380 240 Z" fill="#1a1a1a"/><path d="M 724 240 L 704 180 L 644 240 Z" fill="#1a1a1a"/>
<!-- eyes -->
<ellipse cx="400" cy="500" rx="42" ry="55" fill="#1a1a1a"/>
<ellipse cx="624" cy="500" rx="42" ry="55" fill="#1a1a1a"/>
<!-- eye shine -->
<circle cx="388" cy="478" r="16" fill="#ffffff"/>
<circle cx="612" cy="478" r="16" fill="#ffffff"/>
<!-- nose -->
<ellipse cx="512" cy="610" rx="28" ry="20" fill="#1a1a1a"/>
<!-- mouth: smile -->
<path d="M 460 660 Q 512 710 564 660" stroke="#1a1a1a" stroke-width="14" fill="none" stroke-linecap="round"/>
<!-- cheeks -->
<circle cx="350" cy="620" r="32" fill="#ff9eb5" opacity="0.5"/>
<circle cx="674" cy="620" r="32" fill="#ff9eb5" opacity="0.5"/>
<path d="M 420 620 Q 512 700 604 620 L 580 660 Q 512 700 444 660 Z" fill="#ffffff"/>

</g>
</svg>