<svg xmlns="http://www.w3.org/2000/svg" viewBox="142 80 740 740" width="1024" height="1024">

<g>


<!-- head -->
<circle cx="512" cy="540" r="280" fill="#92400e"/>
<!-- ears -->
<path d="M 300 320 L 270 240 L 350 300 Z" fill="#92400e"/><path d="M 724 320 L 754 240 L 674 300 Z" fill="#92400e"/>
<!-- eyes -->
<ellipse cx="400" cy="500" rx="42" ry="55" fill="#1a1a1a"/>
<ellipse cx="624" cy="500" rx="42" ry="55" fill="#1a1a1a"/>
<!-- eye shine -->
<circle cx="388" cy="478" r="16" fill="#ffffff"/>
<circle cx="612" cy="478" r="16" fill="#ffffff"/>
<!-- nose -->
<ellipse cx="512" cy="610" rx="28" ry="20" fill="#1a1a1a"/>
<!-- mouth: smile -->
<path d="M 460 660 Q 512 710 564 660" stroke="#1a1a1a" stroke-width="14" fill="none" stroke-linecap="round"/>
<!-- cheeks -->
<circle cx="350" cy="620" r="32" fill="#ff9eb5" opacity="0.5"/>
<circle cx="674" cy="620" r="32" fill="#ff9eb5" opacity="0.5"/>
<path d="M 280 380 Q 240 340 280 460 Q 280 500 320 460 M 744 380 Q 784 340 744 460 Q 744 500 704 460" fill="#451a03"/>

</g>
</svg>