<svg xmlns="http://www.w3.org/2000/svg" viewBox="0 0 1024 1024" width="1024" height="1024">

<g>


<!-- head -->
<circle cx="512" cy="540" r="280" fill="#fde047"/>
<!-- ears -->
<path d="M 360 280 L 340 160 L 400 270 Z" fill="#fbbf24"/><path d="M 664 280 L 684 160 L 624 270 Z" fill="#fbbf24"/>
<!-- eyes -->
<ellipse cx="400" cy="500" rx="42" ry="55" fill="#1a1a1a"/>
<ellipse cx="624" cy="500" rx="42" ry="55" fill="#1a1a1a"/>
<!-- eye shine -->
<circle cx="388" cy="478" r="16" fill="#ffffff"/>
<circle cx="612" cy="478" r="16" fill="#ffffff"/>
<!-- nose -->
<ellipse cx="512" cy="610" rx="28" ry="20" fill="#1a1a1a"/>
<!-- mouth: smile -->
<path d="M 460 660 Q 512 710 564 660" stroke="#1a1a1a" stroke-width="14" fill="none" stroke-linecap="round"/>
<!-- cheeks -->
<circle cx="350" cy="620" r="32" fill="#ff9eb5" opacity="0.5"/>
<circle cx="674" cy="620" r="32" fill="#ff9eb5" opacity="0.5"/>
<path d="M 280 460 Q 240 420 280 540 Q 280 580 320 540 M 744 460 Q 784 420 744 540 Q 744 580 704 540" fill="#fef3c7" stroke="#fbbf24" stroke-width="4"/>

</g>
</svg>