<svg xmlns="http://www.w3.org/2000/svg" viewBox="142 80 740 740" width="1024" height="1024">

<g>


<!-- head -->
<circle cx="512" cy="540" r="280" fill="#b91c1c"/>
<!-- ears -->
<path d="M 280 280 L 280 140 L 400 260 Z" fill="#b91c1c"/><path d="M 744 280 L 744 140 L 624 260 Z" fill="#b91c1c"/><path d="M 300 220 L 320 170 L 360 230 Z" fill="#fde047"/><path d="M 724 220 L 704 170 L 664 230 Z" fill="#fde047"/>
<!-- eyes -->
<ellipse cx="400" cy="500" rx="42" ry="55" fill="#1a1a1a"/>
<ellipse cx="624" cy="500" rx="42" ry="55" fill="#1a1a1a"/>
<!-- eye shine -->
<circle cx="388" cy="478" r="16" fill="#ffffff"/>
<circle cx="612" cy="478" r="16" fill="#ffffff"/>
<!-- nose -->
<ellipse cx="512" cy="610" rx="28" ry="20" fill="#1a1a1a"/>
<!-- mouth: smile -->
<path d="M 460 660 Q 512 710 564 660" stroke="#1a1a1a" stroke-width="14" fill="none" stroke-linecap="round"/>
<!-- cheeks -->
<circle cx="350" cy="620" r="32" fill="#ff9eb5" opacity="0.5"/>
<circle cx="674" cy="620" r="32" fill="#ff9eb5" opacity="0.5"/>
<path d="M 380 580 Q 512 720 644 580 Q 580 660 512 660 Q 444 660 380 580 Z" fill="#ffffff"/>

</g>
</svg>