<svg xmlns="http://www.w3.org/2000/svg" viewBox="0 0 1024 1024" width="1024" height="1024">

<g>


<!-- head -->
<circle cx="512" cy="540" r="280" fill="#f59e0b"/>
<!-- ears -->
<path d="M 280 280 L 280 140 L 380 260 Z" fill="#d97706"/><path d="M 744 280 L 744 140 L 644 260 Z" fill="#d97706"/>
<!-- eyes -->
<ellipse cx="400" cy="500" rx="42" ry="55" fill="#1a1a1a"/>
<ellipse cx="624" cy="500" rx="42" ry="55" fill="#1a1a1a"/>
<!-- eye shine -->
<circle cx="388" cy="478" r="16" fill="#ffffff"/>
<circle cx="612" cy="478" r="16" fill="#ffffff"/>
<!-- nose -->
<ellipse cx="512" cy="610" rx="28" ry="20" fill="#1a1a1a"/>
<!-- mouth: smile -->
<path d="M 460 660 Q 512 710 564 660" stroke="#1a1a1a" stroke-width="14" fill="none" stroke-linecap="round"/>
<!-- cheeks -->
<circle cx="350" cy="620" r="32" fill="#ff9eb5" opacity="0.5"/>
<circle cx="674" cy="620" r="32" fill="#ff9eb5" opacity="0.5"/>
<path d="M 420 580 Q 512 680 604 580 Q 580 640 512 640 Q 444 640 420 580 Z" fill="#ffffff"/>

</g>
</svg>